<svg width="758" height="548" viewBox="0 0 758 548" fill="none" xmlns="http://www.w3.org/2000/svg">
<path d="M649.375 314.273C579.929 351.72 503.433 385.464 436.383 397.617C349.339 413.393 235.719 416.808 140.399 407.435C187.178 490.917 276.5 547.341 379.001 547.341C516.275 547.341 629.913 446.139 649.375 314.273Z" fill="#ffffff"/>
<path d="M594.996 106.526C523.484 106.198 448.843 112.059 386.669 123.328C299.83 139.067 194.327 185.467 109.065 230.904C129.741 100.443 242.723 0.705978 379.001 0.705978C466.835 0.705978 544.993 42.1385 594.996 106.526Z" fill="#ffffff"/>
<path fill-rule="evenodd" clip-rule="evenodd" d="M753.423 25.9384C785.661 74.5944 644.16 225.108 437.372 362.12C230.584 499.131 36.8151 570.758 4.57705 522.102C-27.661 473.446 113.84 322.932 320.628 185.921C527.416 48.9088 721.185 -22.7176 753.423 25.9384ZM695.392 39.4963C695.451 39.4675 695.392 39.9708 695.037 41.0928C695.156 40.0861 695.333 39.5251 695.392 39.4963ZM624.325 95.3961C642.168 88.8003 657.824 83.8773 671.224 80.4009C662.799 91.3852 652.162 103.883 639.132 117.743C632.446 124.855 625.282 132.166 617.666 139.646C617.159 138.745 616.646 137.846 616.128 136.948C609.954 126.254 603.168 116.132 595.84 106.603C605.679 102.514 615.186 98.7743 624.325 95.3961ZM139.707 409.011C132.324 416.276 125.37 423.381 118.868 430.297C105.838 444.157 95.2011 456.655 86.7758 467.639C100.176 464.163 115.832 459.24 133.675 452.644C142.577 449.354 151.827 445.721 161.394 441.756C154.024 432.184 147.201 422.015 140.995 411.266C140.562 410.516 140.133 409.764 139.707 409.011ZM39.6857 473.948C39.7352 473.905 40.321 473.961 41.2943 474.244C40.1228 474.133 39.6361 473.991 39.6857 473.948ZM62.9626 506.947C62.844 507.954 62.6667 508.515 62.6077 508.544C62.5487 508.573 62.608 508.069 62.9626 506.947ZM716.706 73.7963C717.877 73.9072 718.364 74.0488 718.314 74.0919C718.265 74.135 717.679 74.0795 716.706 73.7963Z" fill="#ffffff "/>
</svg>
