<?xml version="1.0" encoding="utf-8"?>
<!-- Generator: Adobe Illustrator 27.4.1, SVG Export Plug-In . SVG Version: 6.00 Build 0)  -->
<svg version="1.1" id="Layer_1" xmlns="http://www.w3.org/2000/svg" xmlns:xlink="http://www.w3.org/1999/xlink" x="0px" y="0px"
	 viewBox="0 0 31.9 32" style="enable-background:new 0 0 31.9 32;" xml:space="preserve">
<style type="text/css">
	.st0{fill:#231F20;}
	.st1{fill-rule:evenodd;clip-rule:evenodd;fill:#231F20;}
</style>
<g>
	<path class="st0" d="M27.3,17.7c-2.9,1.6-6.1,3-9,3.5c-3.7,0.7-8.4,0.8-12.4,0.4c2,3.5,5.7,5.9,10,5.9
		C21.7,27.5,26.5,23.2,27.3,17.7z"/>
	<path class="st0" d="M25,9c-3,0-6.1,0.2-8.8,0.7c-3.7,0.7-8.1,2.6-11.7,4.5c0.9-5.5,5.6-9.7,11.4-9.7C19.6,4.5,22.9,6.2,25,9z"/>
	<path class="st1" d="M31.7,5.6c1.4,2-4.6,8.4-13.3,14.1c-8.7,5.8-16.8,8.8-18.2,6.7s4.6-8.4,13.3-14.1C22.2,6.5,30.3,3.5,31.7,5.6z
		 M29.2,6.1C29.2,6.1,29.2,6.2,29.2,6.1C29.2,6.2,29.2,6.1,29.2,6.1z M26.3,8.5c0.8-0.3,1.4-0.5,2-0.6c-0.4,0.5-0.8,1-1.3,1.6
		c-0.3,0.3-0.6,0.6-0.9,0.9c0,0,0-0.1-0.1-0.1c-0.3-0.4-0.5-0.9-0.9-1.3C25.5,8.8,25.9,8.6,26.3,8.5z M5.9,21.7
		C5.6,22,5.3,22.3,5,22.6c-0.5,0.6-1,1.1-1.3,1.6c0.6-0.1,1.2-0.4,2-0.6c0.4-0.1,0.8-0.3,1.2-0.5C6.5,22.7,6.2,22.2,5.9,21.7
		C5.9,21.7,5.9,21.7,5.9,21.7z M1.7,24.4C1.7,24.4,1.7,24.4,1.7,24.4C1.7,24.4,1.7,24.4,1.7,24.4z M2.6,25.8
		C2.6,25.8,2.6,25.9,2.6,25.8C2.6,25.9,2.6,25.8,2.6,25.8z M30.1,7.6C30.2,7.6,30.2,7.6,30.1,7.6C30.2,7.6,30.2,7.6,30.1,7.6z"/>
</g>
</svg>
